<?xml version="1.0" standalone="no"?>
<!DOCTYPE svg PUBLIC "-//W3C//DTD SVG 20010904//EN"
 "http://www.w3.org/TR/2001/REC-SVG-20010904/DTD/svg10.dtd">
<svg version="1.0" xmlns="http://www.w3.org/2000/svg"
 width="640.000000pt" height="640.000000pt" viewBox="0 0 640.000000 640.000000"
 preserveAspectRatio="xMidYMid meet">
<metadata>
Created by potrace 1.11, written by Peter Selinger 2001-2013
</metadata>
<g transform="translate(0.000000,640.000000) scale(0.100000,-0.100000)"
fill="#000000" stroke="none">
<path d="M2885 5376 c-27 -7 -63 -18 -78 -25 -16 -6 -45 -11 -65 -11 -20 0
-42 -4 -47 -8 -15 -10 -37 -63 -42 -97 -8 -68 -4 -96 32 -210 41 -133 43 -145
48 -228 4 -61 0 -67 -42 -74 -30 -5 -24 -5 -246 -2 -174 2 -334 -8 -440 -27
-64 -11 -70 -13 -70 -14 0 -1 -7 -3 -15 -5 -163 -35 -330 -110 -407 -183 -28
-26 -77 -67 -110 -91 -156 -112 -291 -288 -411 -536 -40 -82 -105 -268 -118
-340 -4 -22 -8 -42 -9 -45 -11 -34 -20 -86 -31 -165 -8 -63 -8 -450 0 -463 4
-7 9 -33 11 -59 3 -41 13 -92 30 -153 2 -8 13 -58 25 -110 25 -114 33 -140 75
-250 38 -98 50 -122 85 -170 14 -19 30 -42 35 -51 6 -10 48 -70 95 -135 84
-117 158 -204 234 -273 22 -20 47 -43 56 -51 9 -8 38 -35 66 -59 27 -24 72
-66 100 -92 59 -56 140 -119 152 -119 4 0 14 -6 20 -12 17 -17 106 -66 228
-127 104 -51 265 -96 374 -104 30 -3 80 -9 110 -15 30 -6 87 -13 125 -16 39
-3 108 -9 155 -12 154 -13 401 -10 462 5 41 10 61 11 70 3 14 -11 134 -10 178
2 14 3 65 9 115 12 49 3 101 11 115 16 14 5 45 12 70 14 61 6 178 41 217 65
17 11 57 26 88 35 32 8 70 23 85 34 16 11 31 20 35 20 4 0 37 20 74 44 36 24
111 69 165 100 143 82 229 157 337 296 23 30 46 57 49 60 6 5 75 91 121 150
43 56 109 150 109 156 0 4 15 30 34 58 36 55 68 121 123 256 19 47 40 99 47
115 15 34 46 127 45 135 0 3 4 17 10 33 6 15 13 38 15 50 8 39 14 61 24 102 6
22 13 69 17 105 3 36 11 83 17 105 21 81 24 278 5 370 -4 17 -9 44 -12 60 -2
17 -9 53 -15 80 -16 77 -27 130 -35 174 -2 14 -17 61 -32 105 -15 45 -27 84
-28 88 0 3 -3 10 -7 14 -5 4 -8 14 -8 22 0 8 -11 38 -24 66 -13 28 -32 69 -41
91 -38 84 -138 212 -295 374 -46 47 -124 111 -137 111 -5 0 -18 8 -29 18 -18
17 -181 116 -193 118 -3 0 -28 10 -54 22 -27 12 -58 24 -70 26 -12 3 -38 10
-57 16 -61 19 -73 21 -169 25 -52 3 -99 1 -105 -4 -6 -4 -42 -9 -80 -9 -74 -1
-166 -11 -179 -19 -5 -3 -45 -7 -90 -9 -45 -2 -95 -7 -112 -11 -16 -4 -34 -5
-40 -4 -5 2 -70 5 -143 7 -168 5 -174 8 -238 142 -70 146 -109 224 -130 257
-11 17 -28 46 -39 64 -20 34 -133 182 -138 180 -1 0 -24 -6 -52 -13z"/>
</g>
</svg>
