<?xml version="1.0" standalone="no"?>
<!DOCTYPE svg PUBLIC "-//W3C//DTD SVG 20010904//EN"
 "http://www.w3.org/TR/2001/REC-SVG-20010904/DTD/svg10.dtd">
<svg version="1.0" xmlns="http://www.w3.org/2000/svg"
 width="640.000000pt" height="640.000000pt" viewBox="0 0 640.000000 640.000000"
 preserveAspectRatio="xMidYMid meet">
<metadata>
Created by potrace 1.11, written by Peter Selinger 2001-2013
</metadata>
<g transform="translate(0.000000,640.000000) scale(0.100000,-0.100000)"
fill="#000000" stroke="none">
<path d="M4700 5998 c-46 -19 -125 -37 -260 -60 -36 -5 -73 -15 -84 -20 -11
-6 -16 -6 -13 -1 4 6 -17 4 -45 -3 -28 -8 -71 -16 -96 -19 -25 -3 -50 -9 -56
-14 -6 -5 -24 -11 -41 -14 -16 -3 -50 -10 -75 -17 -46 -13 -67 -16 -108 -19
-13 0 -21 -5 -18 -9 3 -4 -11 -9 -31 -9 -20 -1 -39 -7 -44 -15 -5 -7 -9 -8 -9
-2 0 8 -10 8 -34 0 -19 -6 -32 -15 -29 -21 3 -5 0 -5 -7 2 -8 7 -19 8 -29 3
-14 -8 -58 -20 -71 -19 -3 0 -18 -5 -35 -11 -16 -7 -41 -14 -55 -16 -14 -3
-43 -13 -64 -24 -22 -11 -43 -17 -48 -14 -4 3 -8 0 -8 -5 0 -6 -3 -10 -7 -9
-5 1 -20 -4 -35 -10 -36 -15 -203 -59 -253 -67 -82 -14 -102 -15 -205 -20 -58
-2 -114 -6 -125 -9 -11 -2 -23 -5 -27 -5 -14 -2 -26 -38 -42 -126 -8 -50 -36
-156 -62 -235 -26 -80 -49 -149 -50 -155 -1 -5 -8 -23 -15 -40 -15 -36 -14
-32 -24 -70 -4 -16 -11 -34 -15 -40 -4 -5 -18 -41 -30 -80 -12 -38 -26 -74
-30 -80 -4 -5 -15 -35 -25 -65 -27 -86 -44 -116 -72 -131 -30 -16 -80 -59 -68
-59 4 0 3 -6 -3 -12 -5 -7 -13 -29 -18 -48 -11 -50 -11 -50 -14 -52 -1 -2 -3
-12 -4 -23 -7 -51 -19 -85 -30 -85 -16 0 -90 -149 -141 -282 -31 -81 -41 -98
-59 -99 -33 -1 -78 -7 -116 -14 -19 -3 -100 -8 -179 -10 -165 -5 -221 -11
-233 -23 -9 -9 57 -292 82 -347 10 -23 20 -56 20 -68 0 -4 7 -21 15 -37 19
-36 13 -50 -20 -50 -19 0 -29 10 -45 42 -11 23 -20 47 -20 54 0 7 -3 14 -7 16
-5 2 -30 55 -57 118 -89 210 -95 220 -125 220 -15 0 -32 -5 -39 -12 -7 -7 -12
-9 -12 -6 0 13 -233 -70 -236 -84 -1 -8 7 -32 17 -53 11 -21 19 -45 19 -52 0
-7 5 -13 10 -13 6 0 10 -4 10 -10 0 -5 14 -39 30 -75 16 -36 43 -94 60 -130
16 -36 31 -68 32 -73 2 -4 19 -41 39 -82 20 -41 34 -80 32 -86 -6 -16 -47 -11
-66 7 -8 8 -41 37 -72 64 -32 28 -68 59 -79 70 -12 11 -50 45 -86 75 -35 30
-72 62 -80 70 -128 119 -144 128 -213 123 -134 -9 -322 -74 -452 -156 -104
-65 -231 -182 -292 -270 l-26 -37 39 -58 c21 -31 41 -59 44 -62 3 -3 34 -39
70 -80 77 -88 115 -123 224 -207 44 -35 86 -67 92 -72 7 -6 15 -7 18 -4 3 4 6
2 6 -4 0 -6 15 -18 33 -27 17 -9 46 -26 62 -36 51 -33 313 -160 329 -160 8 0
18 -4 21 -10 3 -6 15 -10 26 -10 10 0 19 -5 19 -12 0 -6 3 -8 7 -5 3 4 12 2
20 -4 7 -6 13 -8 13 -4 0 4 6 3 12 -3 21 -16 138 -54 152 -49 10 4 11 -5 4
-41 -4 -26 -11 -55 -14 -64 -8 -27 -16 -61 -19 -88 -2 -14 -6 -41 -10 -60 -3
-19 -8 -93 -10 -165 -4 -178 13 -303 65 -465 22 -69 125 -286 146 -308 7 -6
16 -21 19 -32 3 -11 11 -20 16 -20 5 0 8 -3 7 -7 -11 -37 118 -221 208 -296
132 -111 124 -106 252 -179 66 -37 170 -57 322 -62 51 -1 102 -11 160 -31 75
-26 100 -29 205 -30 127 0 151 3 228 30 47 17 49 17 120 -8 40 -15 88 -29 107
-33 66 -13 279 -12 331 1 27 7 50 13 52 13 29 1 217 82 237 102 19 20 56 25
89 14 44 -16 136 -17 216 -3 33 5 74 12 90 15 17 2 82 30 145 62 63 31 117 57
120 57 9 1 105 18 110 20 3 1 19 5 35 9 58 15 212 103 223 129 2 4 10 7 18 7
8 0 14 7 14 15 0 7 6 18 14 22 14 8 16 12 16 33 0 5 6 9 13 7 6 -1 11 4 10 11
-2 6 1 12 7 12 5 0 7 6 4 13 -2 7 14 43 36 79 22 37 40 69 40 71 0 3 7 22 16
43 9 22 16 41 16 44 0 3 3 10 8 15 11 15 36 108 54 203 9 46 23 93 31 105 8
12 15 16 15 9 0 -8 10 -11 28 -8 15 2 61 10 102 16 107 16 110 17 165 30 28 6
57 13 65 15 88 19 313 85 355 104 11 5 43 17 70 27 28 10 56 22 63 27 6 5 12
7 12 4 0 -5 222 105 300 149 32 18 41 24 72 50 7 5 21 13 31 17 40 15 5 33
-124 66 -159 40 -166 44 -109 55 14 2 44 9 67 14 23 5 44 7 48 4 3 -3 5 -1 5
4 0 5 10 9 23 10 12 0 36 4 52 7 17 4 53 11 80 17 165 34 161 28 58 111 -93
76 -106 86 -241 191 -48 38 -91 71 -97 76 -5 4 -69 51 -142 105 -248 182 -496
336 -603 374 -46 16 -49 16 -126 -9 -43 -15 -124 -38 -179 -53 -55 -15 -134
-37 -175 -50 -84 -26 -140 -37 -140 -27 0 4 26 25 56 47 31 22 67 49 79 60 24
21 30 25 138 107 37 27 67 54 67 57 0 10 -44 51 -54 51 -4 0 -17 9 -29 21 -36
34 -336 229 -353 229 -3 0 -20 10 -37 23 -27 18 -32 28 -30 52 12 102 5 370
-11 475 -4 26 -26 60 -40 60 -7 0 -21 9 -31 20 -16 17 -18 36 -17 128 1 59 4
121 6 137 12 92 16 115 25 137 12 31 33 48 68 54 30 5 63 37 63 61 0 9 -31 79
-69 157 -37 78 -73 152 -78 166 -13 36 -5 60 21 60 27 0 46 18 46 42 0 49 30
5 80 -115 32 -77 69 -127 93 -127 7 0 59 27 117 60 58 33 114 61 125 61 11 1
27 2 35 3 8 0 21 -7 28 -17 12 -15 10 -24 -12 -62 -29 -49 -35 -115 -11 -138
8 -9 33 -18 55 -22 27 -5 48 -17 66 -38 23 -27 26 -38 21 -78 -6 -48 -38 -110
-73 -140 -11 -9 -50 -34 -89 -56 -38 -22 -106 -61 -150 -86 -83 -48 -132 -87
-151 -122 -12 -22 -9 -64 7 -80 12 -12 86 -12 144 -1 46 9 67 11 150 21 33 3
78 9 100 11 22 3 54 7 70 9 17 2 55 6 85 9 30 4 71 9 90 11 135 15 214 44 247
91 25 36 31 56 38 122 3 29 7 65 9 80 3 15 7 54 11 87 6 66 9 89 25 215 6 47
13 96 16 110 3 14 7 41 10 60 4 33 15 74 45 176 7 22 9 52 5 67 -7 28 -289
320 -300 310 -3 -4 -6 0 -6 8 0 18 -228 255 -242 251 -5 -1 -7 2 -4 7 3 5 -21
36 -53 69 -32 33 -69 75 -82 94 -13 18 -26 35 -29 38 -3 3 -11 17 -19 32 -8
15 -18 25 -23 22 -5 -3 -8 0 -6 7 3 19 -31 69 -48 69 -8 0 -14 4 -14 8 0 12
-62 12 -90 0z"/>
</g>
</svg>
